<svg xmlns="http://www.w3.org/2000/svg" viewBox="0 0 754 653" width="754" height="653">
	<style>
		tspan { white-space:pre }
		.shp0 { fill: #ff6a07 } 
		.shp1 { fill: #ff6a07;stroke: #d6d9de } 
	</style>
	<g id="testimonials">
		<path id="Path_16196" class="shp0" d="M657.6 560.15C773.94 443.8 786.43 246.52 684.25 144.25C596.2 56.25 387.59 -13.18 198.08 97.3C126.02 142.97 76.58 200.63 82.04 314.98C94.13 411.86 123.98 439.76 107.9 498.58C102.18 517.38 96.48 537.98 90.8 560.37C85.86 583.3 90.8 599.77 104.12 605.24C118.65 610.13 138.91 609.42 160.45 606.62C177.95 604.13 197.41 598.35 217.54 598.04C264.98 635.67 502.29 715.64 657.6 560.15Z" />
		<path id="Path_16197" class="shp1" d="M16.1 305.58L26.77 303.7L26.77 303.7L37.44 301.79C38.94 301.49 40.38 300.91 41.67 300.08C42.97 299.25 44.09 298.18 44.98 296.93C45.87 295.68 46.52 294.27 46.89 292.78C47.26 291.29 47.34 289.74 47.13 288.22C43.75 261.32 45.34 234.02 51.82 207.7C58.31 181.37 69.57 156.46 85.05 134.2C100.54 111.94 119.98 92.72 142.41 77.49C164.84 62.26 189.88 51.27 216.27 45.09C217.77 44.75 219.2 44.14 220.47 43.28C221.74 42.41 222.83 41.32 223.69 40.05C224.56 38.78 225.17 37.35 225.5 35.85C225.83 34.35 225.87 32.8 225.63 31.29L223.71 20.62L221.79 9.91C221.54 8.42 220.99 6.99 220.18 5.71C219.36 4.44 218.3 3.34 217.04 2.49C215.79 1.64 214.38 1.05 212.9 0.75C211.41 0.46 209.88 0.48 208.4 0.79C176.18 8.02 145.58 21.19 118.18 39.61C90.78 58.04 67.04 81.4 48.18 108.51C29.33 135.62 15.68 166 7.94 198.1C0.2 230.21 -1.5 263.47 2.93 296.19C3.15 297.69 3.67 299.12 4.45 300.41C5.24 301.7 6.28 302.82 7.51 303.69C8.74 304.57 10.14 305.19 11.61 305.51C13.09 305.84 14.61 305.86 16.1 305.58Z" />
	</g>
</svg>